Patient4_TMGait_0pt2_03_left_01_EMG.mot
version=1
nRows=23
nColumns=33
inDegrees=no
endheader
time	1LAddLong	2LGlutMax	3LGlutMed	4LIliopsoas	5LSemiMemb	6LBicFemLong	7LRecFem	8LVastMed	9LVastLat	10LGasMed	11LTibAnt	12lTibPost	13LPeroneusLong	14LSol	15LExtDigLong	16LFlexDigLong	17RAddLong	18RGlutMax	19RGlutMed	20RIliopsoas	21RSemiMemb	22RBicFemLong	23RRecFem	24RVastMed	25RVastLat	26RGasMed	27RTibAnt	28RTibPost	29RPeroneusLong	30RSol	31RExtDigLong	32RFlexDigLong
0.72	0.005798	-0.049286	-0.030212	-0.026398	0.036011	-0.000153	-0.10941	0.009766	0.031281	-0.002899	0.093231	0.003052	0.029449	0.036621	0.12604	0.005341	0.04715	-0.016174	1.2126	0.10971	0.10162	-0.081482	0.90225	0.46371	-0.13351	-0.015717	0.095978	-0.000458	0.3479	0.042877	-0.004883	-0.007935
0.721	0.009308	-0.038757	-0.080719	0.004425	0.031891	-0.007172	-0.090485	0.004578	0.023956	-0.011902	-0.012054	0.006714	0.071869	-0.037537	0.066071	0.012054	0.027466	-0.000916	0.48904	-0.019226	-0.021057	-0.014648	0.70129	0.68085	-0.39856	-0.019226	0.078125	-0.004272	0.28473	-0.082397	-0.001526	-0.010681
0.722	0.004883	-0.029449	-0.058441	0.000458	0.034637	-0.002747	-0.05249	0.010681	0.035706	-0.05722	0.036163	0.003052	0.17853	0.024261	0.1236	0.001984	0.073547	0.014496	-0.26932	-0.089111	-0.18341	-0.012512	0.31235	0.41946	-0.88562	-0.005798	0.074615	-0.001678	0.17578	0.009918	-0.001068	-0.01358
0.723	0.009613	-0.011292	-0.07019	0.005341	0.034332	-0.000763	-0.05127	0.014801	0.021973	-0.018005	0.097809	-0.002441	0.11063	0.048981	0.010834	0.00351	0.07782	0.069122	-0.00473	-0.089417	-0.16724	0.064697	-0.47867	0.42999	-1.2605	0.010834	0.10986	-0.002136	0.049133	0.23926	-0.002441	-0.010834
0.724	0.008087	0.000458	0.083008	-0.003357	0.029297	-0.000763	-0.040741	0.011902	0.014954	-0.003052	0.064545	0.002899	0.068817	0.009003	-0.21088	0.001526	0.024872	0.1474	0.0354	-0.057068	0.094147	0.025482	-1.2572	-0.094757	-1.0828	0.002594	0.098877	-0.001678	0.030823	0.21179	-0.000153	-0.012817
0.725	0.00946	-0.028534	0.11444	-0.006409	0.039825	-0.001373	-0.038605	0.003967	0.020599	0.007629	0.012512	0.001068	0.06958	-0.043793	-0.17822	0.002441	-0.005646	0.11337	-0.37109	0.011902	0.13412	0.075684	-1.0995	-0.16327	-0.63797	-0.003967	0.030212	-0.007324	0.040588	0.093384	0.005188	-0.017242
0.726	0.001831	0.019989	0.1088	0.004425	0.032196	-0.005341	-0.033417	0.007629	0.027466	0.00412	-0.023499	0.001984	0.088043	-0.022888	-0.052338	0.013733	0.003815	0.13641	-0.75501	0.031586	0.10162	0.20721	-1.0997	0.064392	0.028229	-0.001221	-0.18723	-0.002899	0.046997	0.097198	0.000916	-0.013733
0.727	0.008392	-0.013733	0.07843	0.015869	0.03006	-0.008545	-0.042725	0.014496	0.024109	-0.001831	-0.043335	-0.002441	0.092926	0.014648	-0.012817	0.003815	-0.021362	0.1944	-0.74112	-0.031738	-0.005341	0.20798	-0.99075	0.062714	0.31509	0.004578	-0.018921	0.001373	0.082245	0.013123	0.000305	-0.003357
0.728	-0.003967	0.030975	0.072479	0.030518	0.037537	-0.012207	-0.039825	0.006256	0.013428	0	-0.000458	0.000458	0.083008	-0.007477	0.010071	0.007172	-0.096741	0.2446	0.019836	-0.063324	0.17883	0.12558	-0.62912	0.033112	0.52521	0.003815	0.063019	-0.006409	0.021973	0.080261	-0.008087	-0.007324
0.729	0.004272	-0.045166	0.039825	0.021667	0.039368	0.006409	-0.000458	0.012207	0.015869	0.021515	0.081482	-0.009308	0.035706	-0.017242	0.13596	0.001831	-0.085297	0.14572	0.23483	-0.044403	0.11459	-0.00061	-0.1593	-0.1683	0.74951	0.00061	0.059204	-0.001373	0.019836	-0.067139	0.000305	-0.00824
0.73	0.004425	-0.012207	0.026855	0.016022	0.037079	-0.000916	-0.014343	0.012512	0.016632	0.021667	0.044861	-0.00412	0.037842	0.026398	0.30685	0.010071	0.002594	0.14832	0.22934	0.051422	0.066681	-0.11078	0.045013	-0.54962	0.80688	-0.013733	0.32486	0.000916	-0.081177	-0.066071	-0.005493	-0.008545
0.731	0.003052	-0.001221	-0.000763	0.016479	0.03479	-0.005646	-0.012207	0.009003	0.018005	0.006866	0.000305	-0.001373	0.052643	0.019226	0.12787	0.006409	0.12909	0.16754	-0.61874	0.032196	-0.11643	-0.20081	0.13153	-0.8963	0.56961	-0.019531	0.51743	-0.001678	-0.20187	-0.020294	-0.005341	-0.00351
0.732	0.002289	0.001526	-0.015106	0.010071	0.034485	-0.021515	0.015717	0.009155	0.011444	0.017242	0.024567	-0.00351	0.044403	0.04776	0.15243	0.003357	0.1918	0.16922	-0.86914	-0.066223	-0.064087	-0.17609	0.21408	-1.0252	0.26703	-0.016479	-0.20233	-0.005341	-0.18387	-0.016785	-0.002136	-0.001373
0.733	-0.001526	0.00824	0.002289	0.024719	0.030365	-0.014343	0.001831	0.014648	0.00885	0.00412	0.17822	-0.006561	0.042114	0.066071	1.0966	0.00473	0.15091	0.18326	-0.35126	-0.074158	0.05661	-0.067291	0.18051	-0.89737	0.15732	-0.015564	-0.14984	-0.004425	-0.16022	-0.27298	-0.003357	0.004578
0.734	0.001373	-0.015564	-0.014343	0.021667	0.034943	-0.011902	0.023346	0.009766	0.005646	-0.0354	0.16769	-0.004425	0.060425	0.13519	-0.11047	0.01358	0	0.16174	0.67917	-0.065613	-0.046082	0.082855	-0.014496	-0.63843	0.19028	-0.006104	0.25879	-0.00946	-0.084534	-0.32288	-0.001221	-0.001984
0.735	-0.006256	-0.019989	-0.030365	-0.000458	0.032043	-0.011292	0.014648	0.014954	0.002441	-0.023651	-0.023499	-0.006104	0.10101	0.10605	-0.7962	0.009918	-0.055084	0.13016	0.76782	-0.03067	-0.045166	0.1532	-0.043182	-0.44739	0.15701	0.007477	0.082703	-0.000153	-0.053711	-0.26581	-0.001221	-0.010681
0.736	0.005188	0.016174	-0.054016	-0.014648	0.029907	0.007935	0.016632	0.0177	-0.007629	0.014191	-0.10407	-0.01297	0.068817	0.076752	-0.8873	0.01358	-0.061951	0.16754	-0.094452	0.10147	-0.11093	0.10757	-0.067139	-0.35675	0.14084	0.009766	-0.20203	-0.005646	0.084229	-0.10742	-0.001526	-0.011597
0.737	-0.047302	0.007172	-0.051575	-0.026855	0.027618	-0.00351	0.023041	0.011597	-0.010986	0.030212	0.027161	-0.002136	-0.001678	0.10117	0.035706	0.011902	-0.007935	0.12787	0.17364	0.10819	-0.052948	0.015717	0.09079	0.21454	-0.032196	0.019073	-0.2211	-0.003662	0.15518	-0.083771	-0.001526	-0.011139
0.738	-0.039368	-0.001068	-0.040131	-0.006866	0.034332	-0.013428	0.022736	0.016174	-0.00946	0.000763	0.13458	-0.002899	0.071411	0.14633	0.29266	0.013885	0.056458	0.11749	0.44357	0.039673	-0.095215	-0.003357	0.30838	0.83084	-0.16419	0.028381	-0.11124	-0.001831	0.29633	0.075989	-0.001831	-0.009003
0.739	0.003967	-0.018158	-0.054626	0.009766	0.031738	0.007629	0.014038	0.01709	0.001373	-0.052032	0.07309	-0.003052	0.13138	0.14786	0.01297	0.01358	0.067291	0.14862	0.45059	-0.024109	-0.32425	0.077515	0.38498	1.6292	-0.16983	0.030365	0.091095	-0.005188	0.00351	0.18967	-0.00061	-0.006866
0.74	0.005035	-0.017242	0.029755	-0.010986	0.027313	-0.001221	0.006104	0.016479	0.000458	-0.043945	-0.027466	-0.006866	0.084839	0.073547	-0.26657	-0.002289	0.060883	0.11673	0.23941	0.17792	-0.3241	0.13031	0.45441	1.7061	-0.1648	0.007019	0.20432	-0.001984	-0.16968	0.28427	-0.000458	-0.019226
0.741	0.013733	-0.001221	0.10315	0.014496	0.027771	-0.003662	-0.009308	0.017395	-0.00351	0.00412	-0.13886	-0.007782	0.010071	-0.047607	-0.3122	0.004272	0.063934	0.11993	-0.24277	0.19257	0.13214	0.14282	0.52978	1.2285	-0.25604	-0.02533	0.13519	-0.00412	-0.27222	0.07782	0.001984	-0.011749
0.742	0.007019	-0.028076	0.089874	0.019379	0.028229	0.001831	-0.031281	0.013885	-0.007324	0.023041	-0.11704	-0.011292	-0.024414	-0.1059	-0.23422	0.002899	0.050659	0.14969	-0.36087	0.098877	0.045166	0.14679	0.34958	0.35675	-0.4715	-0.019836	-0.17639	-0.027771	-0.10757	-0.04837	-0.002899	-0.00824
